<?xml version="1.0" encoding="UTF-8" standalone="no"?>
<svg
   version="1.1"
   width="24"
   height="24"
   viewBox="0 0 24 24"
   id="svg4"
   sodipodi:docname="cube-outline.svg"
   inkscape:version="1.1 (c4e8f9ed74, 2021-05-24)"
   xmlns:inkscape="http://www.inkscape.org/namespaces/inkscape"
   xmlns:sodipodi="http://sodipodi.sourceforge.net/DTD/sodipodi-0.dtd"
   xmlns="http://www.w3.org/2000/svg"
   xmlns:svg="http://www.w3.org/2000/svg">
  <defs
     id="defs8">
    <filter
       inkscape:collect="always"
       style="color-interpolation-filters:sRGB"
       id="filter1386"
       x="-0.169476"
       y="-0.1525284"
       width="1.338952"
       height="1.3050568">
      <feGaussianBlur
         inkscape:collect="always"
         stdDeviation="1.27107"
         id="feGaussianBlur1388" />
    </filter>
  </defs>
  <sodipodi:namedview
     id="namedview6"
     pagecolor="#ffffff"
     bordercolor="#666666"
     borderopacity="1.0"
     inkscape:pageshadow="2"
     inkscape:pageopacity="0.0"
     inkscape:pagecheckerboard="0"
     showgrid="false"
     inkscape:zoom="21.208333"
     inkscape:cx="10.043222"
     inkscape:cy="12.683694"
     inkscape:window-width="1680"
     inkscape:window-height="1022"
     inkscape:window-x="1366"
     inkscape:window-y="0"
     inkscape:window-maximized="1"
     inkscape:current-layer="layer2" />
  <g
     inkscape:groupmode="layer"
     id="layer1"
     inkscape:label="BG" />
  <g
     inkscape:groupmode="layer"
     id="layer2"
     inkscape:label="Overlay">
    <path
       d="m 21,16.5 c 0,0.38 -0.21,0.71 -0.53,0.88 l -7.9,4.44 C 12.41,21.94 12.21,22 12,22 11.79,22 11.59,21.94 11.43,21.82 L 3.53,17.38 C 3.21,17.21 3,16.88 3,16.5 v -9 C 3,7.12 3.21,6.79 3.53,6.62 l 7.9,-4.44 C 11.59,2.06 11.79,2 12,2 c 0.21,0 0.41,0.06 0.57,0.18 l 7.9,4.44 C 20.79,6.79 21,7.12 21,7.5 v 9 M 12,4.15 6.04,7.5 12,10.85 17.96,7.5 12,4.15 m -7,11.76 6,3.38 V 12.58 L 5,9.21 v 6.7 m 14,0 v -6.7 l -6,3.37 v 6.71 z"
       id="path2"
       style="fill:#4e90e6;fill-opacity:1;fill-rule:nonzero;stroke:none;stroke-opacity:1" />
    <path
       d="m 21,16.5 c 0,0.38 -0.21,0.71 -0.53,0.88 l -7.9,4.44 C 12.41,21.94 12.21,22 12,22 11.79,22 11.59,21.94 11.43,21.82 L 3.53,17.38 C 3.21,17.21 3,16.88 3,16.5 v -9 C 3,7.12 3.21,6.79 3.53,6.62 l 7.9,-4.44 C 11.59,2.06 11.79,2 12,2 c 0.21,0 0.41,0.06 0.57,0.18 l 7.9,4.44 C 20.79,6.79 21,7.12 21,7.5 v 9 M 12,4.15 6.04,7.5 12,10.85 17.96,7.5 12,4.15 m -7,11.76 6,3.38 V 12.58 L 5,9.21 v 6.7 m 14,0 v -6.7 l -6,3.37 v 6.71 z"
       id="path2-7"
       style="mix-blend-mode:normal;fill:#4e90e6;fill-opacity:1;fill-rule:nonzero;stroke:none;stroke-opacity:1;filter:url(#filter1386)" />
  </g>
</svg>
