<?xml version="1.0" encoding="UTF-8" standalone="no"?>
<svg
   version="1.1"
   width="24"
   height="24"
   viewBox="0 0 24 24"
   id="svg4"
   sodipodi:docname="key.svg"
   inkscape:version="1.1 (c4e8f9ed74, 2021-05-24)"
   xmlns:inkscape="http://www.inkscape.org/namespaces/inkscape"
   xmlns:sodipodi="http://sodipodi.sourceforge.net/DTD/sodipodi-0.dtd"
   xmlns="http://www.w3.org/2000/svg"
   xmlns:svg="http://www.w3.org/2000/svg">
  <defs
     id="defs8">
    <filter
       inkscape:collect="always"
       style="color-interpolation-filters:sRGB"
       id="filter843"
       x="-0.12432999"
       y="-0.22793831"
       width="1.24866"
       height="1.4558766">
      <feGaussianBlur
         inkscape:collect="always"
         stdDeviation="1.1396916"
         id="feGaussianBlur845" />
    </filter>
  </defs>
  <sodipodi:namedview
     id="namedview6"
     pagecolor="#ffffff"
     bordercolor="#666666"
     borderopacity="1.0"
     inkscape:pageshadow="2"
     inkscape:pageopacity="0.0"
     inkscape:pagecheckerboard="0"
     showgrid="false"
     inkscape:zoom="21.208333"
     inkscape:cx="11.976425"
     inkscape:cy="12.023576"
     inkscape:window-width="1680"
     inkscape:window-height="1022"
     inkscape:window-x="1366"
     inkscape:window-y="0"
     inkscape:window-maximized="1"
     inkscape:current-layer="svg4" />
  <path
     d="M7,14A2,2 0 0,1 5,12A2,2 0 0,1 7,10A2,2 0 0,1 9,12A2,2 0 0,1 7,14M12.65,10C11.83,7.67 9.61,6 7,6A6,6 0 0,0 1,12A6,6 0 0,0 7,18C9.61,18 11.83,16.33 12.65,14H17V18H21V14H23V10H12.65Z"
     id="path2"
     style="fill:#e6ac3e;fill-opacity:1" />
  <path
     d="M 7,14 A 2,2 0 0 1 4.9999999,12 2,2 0 0 1 7,10 2,2 0 0 1 9,12 2,2 0 0 1 7,14 m 5.65,-4 C 11.83,7.6699998 9.61,5.9999998 7,5.9999998 A 6,6 0 0 0 0.9999999,12 6,6 0 0 0 7,18 c 2.61,0 4.83,-1.67 5.65,-4 H 17 v 4 h 4 v -4 h 2 v -4 z"
     id="path2-3"
     style="fill:#e6ac3e;fill-opacity:1;filter:url(#filter843)" />
</svg>
