<?xml version="1.0" encoding="UTF-8" standalone="no"?>
<svg
   version="1.1"
   width="24"
   height="24"
   viewBox="0 0 24 24"
   id="svg4"
   sodipodi:docname="web.svg"
   inkscape:version="1.1 (c4e8f9ed74, 2021-05-24)"
   xmlns:inkscape="http://www.inkscape.org/namespaces/inkscape"
   xmlns:sodipodi="http://sodipodi.sourceforge.net/DTD/sodipodi-0.dtd"
   xmlns="http://www.w3.org/2000/svg"
   xmlns:svg="http://www.w3.org/2000/svg">
  <defs
     id="defs8">
    <filter
       inkscape:collect="always"
       style="color-interpolation-filters:sRGB"
       id="filter843"
       x="-0.16092929"
       y="-0.16092929"
       width="1.3218586"
       height="1.3218586">
      <feGaussianBlur
         inkscape:collect="always"
         stdDeviation="1.3410774"
         id="feGaussianBlur845" />
    </filter>
  </defs>
  <sodipodi:namedview
     id="namedview6"
     pagecolor="#ffffff"
     bordercolor="#666666"
     borderopacity="1.0"
     inkscape:pageshadow="2"
     inkscape:pageopacity="0.0"
     inkscape:pagecheckerboard="0"
     showgrid="false"
     inkscape:zoom="21.208333"
     inkscape:cx="12.023576"
     inkscape:cy="12.023576"
     inkscape:window-width="1680"
     inkscape:window-height="1022"
     inkscape:window-x="1366"
     inkscape:window-y="0"
     inkscape:window-maximized="1"
     inkscape:current-layer="svg4" />
  <path
     d="M16.36,14C16.44,13.34 16.5,12.68 16.5,12C16.5,11.32 16.44,10.66 16.36,10H19.74C19.9,10.64 20,11.31 20,12C20,12.69 19.9,13.36 19.74,14M14.59,19.56C15.19,18.45 15.65,17.25 15.97,16H18.92C17.96,17.65 16.43,18.93 14.59,19.56M14.34,14H9.66C9.56,13.34 9.5,12.68 9.5,12C9.5,11.32 9.56,10.65 9.66,10H14.34C14.43,10.65 14.5,11.32 14.5,12C14.5,12.68 14.43,13.34 14.34,14M12,19.96C11.17,18.76 10.5,17.43 10.09,16H13.91C13.5,17.43 12.83,18.76 12,19.96M8,8H5.08C6.03,6.34 7.57,5.06 9.4,4.44C8.8,5.55 8.35,6.75 8,8M5.08,16H8C8.35,17.25 8.8,18.45 9.4,19.56C7.57,18.93 6.03,17.65 5.08,16M4.26,14C4.1,13.36 4,12.69 4,12C4,11.31 4.1,10.64 4.26,10H7.64C7.56,10.66 7.5,11.32 7.5,12C7.5,12.68 7.56,13.34 7.64,14M12,4.03C12.83,5.23 13.5,6.57 13.91,8H10.09C10.5,6.57 11.17,5.23 12,4.03M18.92,8H15.97C15.65,6.75 15.19,5.55 14.59,4.44C16.43,5.07 17.96,6.34 18.92,8M12,2C6.47,2 2,6.5 2,12A10,10 0 0,0 12,22A10,10 0 0,0 22,12A10,10 0 0,0 12,2Z"
     id="path2"
     style="fill:#2bec62;fill-opacity:1" />
  <path
     d="m 16.36,14 c 0.08,-0.66 0.14,-1.32 0.14,-2 0,-0.68 -0.06,-1.34 -0.14,-2 h 3.38 c 0.16,0.64 0.26,1.31 0.26,2 0,0.69 -0.1,1.36 -0.26,2 m -5.15,5.56 c 0.6,-1.11 1.06,-2.31 1.38,-3.56 h 2.95 c -0.96,1.65 -2.49,2.93 -4.33,3.56 M 14.34,14 H 9.66 c -0.1,-0.66 -0.1600004,-1.32 -0.1600004,-2 0,-0.68 0.06,-1.35 0.1600004,-2 h 4.68 c 0.09,0.65 0.16,1.32 0.16,2 0,0.68 -0.07,1.34 -0.16,2 M 12,19.96 C 11.17,18.76 10.5,17.43 10.09,16 h 3.82 C 13.5,17.43 12.83,18.76 12,19.96 M 7.9999996,7.9999999 h -2.92 c 0.95,-1.66 2.49,-2.94 4.32,-3.56 -0.6,1.11 -1.05,2.31 -1.4,3.56 M 5.0799996,16 h 2.92 c 0.35,1.25 0.8,2.45 1.4,3.56 -1.83,-0.63 -3.37,-1.91 -4.32,-3.56 m -0.82,-2 c -0.16,-0.64 -0.26,-1.31 -0.26,-2 0,-0.69 0.1,-1.36 0.26,-2 h 3.38 c -0.08,0.66 -0.14,1.32 -0.14,2 0,0.68 0.06,1.34 0.14,2 M 12,4.0299999 c 0.83,1.2 1.5,2.54 1.91,3.97 h -3.82 c 0.41,-1.43 1.08,-2.77 1.91,-3.97 m 6.92,3.97 h -2.95 c -0.32,-1.25 -0.78,-2.45 -1.38,-3.56 1.84,0.63 3.37,1.9 4.33,3.56 m -6.92,-6 c -5.5300004,0 -10.0000004,4.5 -10.0000004,10.0000001 A 10,10 0 0 0 12,22 10,10 0 0 0 22,12 10,10 0 0 0 12,1.9999999 Z"
     id="path2-3"
     style="fill:#2bec62;fill-opacity:1;filter:url(#filter843)" />
</svg>
